<svg width="13" height="18" viewBox="0 0 13 18" fill="none" xmlns="http://www.w3.org/2000/svg">
<path d="M4.88281 14.6133H8.375V18H4.88281V14.6133ZM0.605469 6.17578C0.699219 3.94922 1.47656 2.37109 2.9375 1.44141C3.85938 0.847656 4.99219 0.550781 6.33594 0.550781C8.10156 0.550781 9.56641 0.972656 10.7305 1.81641C11.9023 2.66016 12.4883 3.91016 12.4883 5.56641C12.4883 6.58203 12.2344 7.4375 11.7266 8.13281C11.4297 8.55469 10.8594 9.09375 10.0156 9.75L9.18359 10.3945C8.73047 10.7461 8.42969 11.1562 8.28125 11.625C8.1875 11.9219 8.13672 12.3828 8.12891 13.0078H4.96484C5.01172 11.6875 5.13672 10.7773 5.33984 10.2773C5.54297 9.76953 6.06641 9.1875 6.91016 8.53125L7.76562 7.86328C8.04688 7.65234 8.27344 7.42188 8.44531 7.17188C8.75781 6.74219 8.91406 6.26953 8.91406 5.75391C8.91406 5.16016 8.73828 4.62109 8.38672 4.13672C8.04297 3.64453 7.41016 3.39844 6.48828 3.39844C5.58203 3.39844 4.9375 3.69922 4.55469 4.30078C4.17969 4.90234 3.99219 5.52734 3.99219 6.17578H0.605469Z" fill="#FAFAFA"/>
</svg>
